<?xml version="1.0" encoding="utf-8"?>
<!-- Generator: Adobe Illustrator 25.0.0, SVG Export Plug-In . SVG Version: 6.00 Build 0)  -->
<svg version="1.1" id="Calque_1" xmlns="http://www.w3.org/2000/svg" xmlns:xlink="http://www.w3.org/1999/xlink" x="0px" y="0px"
	 viewBox="0 0 1920 1080" style="enable-background:new 0 0 1920 1080;" xml:space="preserve">
<style type="text/css">
	.st0{fill:#6D7AEA;}
	.st1{fill:#FBB03B;}
</style>
<path class="st0" d="M607.1,486.95V354.97c0-23.16-18.77-41.93-41.93-41.93h-6.72c-23.16,0-41.93,18.77-41.93,41.93v119.32
	c0,45-80.88,41.48-80.88,2.81c0-13.98-0.1-77.54-0.25-122.3c-0.08-23.1-18.83-41.76-41.93-41.76h0c-23.16,0-41.93,18.77-41.93,41.93
	v131.98c0,0,1.71,30.78,28.89,55.76c-27.18,24.98-28.89,55.76-28.89,55.76v157.8c0,23.15,18.77,41.92,41.92,41.92h0
	c23.1,0,41.85-18.68,41.92-41.78c0.16-52.34,0.27-133.62,0.27-148.1c0-38.67,80.88-42.19,80.88,2.81v145.15
	c0,23.15,18.77,41.92,41.92,41.92h6.74c23.15,0,41.92-18.77,41.92-41.92v-157.8c0,0-1.71-30.78-28.89-55.76
	C605.38,517.73,607.1,486.95,607.1,486.95z"/>
<path class="st1" d="M1065.68,798.18h-15.41c-20.26,0-36.69-16.43-36.69-36.69V349.73c0-20.26,16.43-36.69,36.69-36.69h15.41
	c20.26,0,36.69,16.43,36.69,36.69v411.75C1102.37,781.75,1085.94,798.18,1065.68,798.18z"/>
<path class="st1" d="M1579.25,798.18h-15.41c-20.26,0-36.69-16.43-36.69-36.69V349.73c0-20.26,16.43-36.69,36.69-36.69h15.41
	c20.26,0,36.69,16.43,36.69,36.69v411.75C1615.94,781.75,1599.51,798.18,1579.25,798.18z"/>
<path class="st0" d="M1063.36,850.67l-129.17,1.38v-334.3c0-24.52-19.88-44.39-44.4-44.39c-24.52,0-44.39,19.88-44.39,44.39v354.17
	h1.03c5.5,32.9,34.21,57.9,68.68,57.53l149.08-1.59c21.15-0.22,38.18-17.44,38.18-38.59
	C1102.37,867.79,1084.84,850.44,1063.36,850.67z"/>
<path class="st0" d="M254.46,263.86c21.47,0.23,39.01-17.12,39.01-38.59l0,0c0-21.15-17.03-38.37-38.18-38.59l-141.92-1.59
	c-5.83-0.06-22.42-0.41-25.31-0.41c-24.52,0-44.4,21.44-44.4,45.96l0,623.73v6.12c0,38.38,31.33,69.38,69.71,68.97l141.92-1.59
	c21.15-0.22,38.18-17.44,38.18-38.59c0-21.48-17.53-38.82-39.01-38.59l-122.02,1.35V569.57l105.85,1.42
	c19.64,0.23,35.68-17.12,35.68-38.59c0-21.15-15.57-38.37-34.92-38.59l-106.6-1.54V262.51L254.46,263.86z"/>
<path class="st0" d="M1837.55,148.94h-200.62c-19.35,0-36.64,13.72-39.39,32.87c-3.43,23.86,14.99,44.32,38.18,44.32h56.52v658.42
	c0,21.96,15.42,41.62,37.11,45.06c27.74,4.41,51.68-16.91,51.68-43.82V226.13h55.31c19.35,0,36.64-13.72,39.39-32.87
	C1879.17,169.4,1860.75,148.94,1837.55,148.94z"/>
<path class="st1" d="M1282.25,473.35c0,0,0-18.52,0-64.69c0-45,88.3-41.48,88.3-2.81c0,6.46,0.02,13.38,0.06,20.58
	c0.13,22.64,16.11,42.84,38.48,46.34c28.62,4.48,53.29-17.53,53.29-45.3v-31.46c0,0-5.29-87.19-139.51-87.19
	c-134.22,0-139.52,87.19-139.52,87.19v77.34v165.37v77.34c0,0,5.3,87.19,139.52,87.19c134.22,0,139.51-87.19,139.51-87.19v-30.18
	c0-22.64-15.86-42.92-38.21-46.54c-28.6-4.64-53.39,17.23-53.55,44.97c-0.05,7.67-0.07,15.05-0.07,21.91
	c0,38.67-88.3,42.19-88.3-2.81c0-46.17,0-64.69,0-64.69V473.35z"/>
<path class="st0" d="M860.34,186.24h-45.27c-22.15,0-41.26,16.5-43.47,38.54c-2.58,25.74,17.56,47.43,42.76,47.43h31.42
	c51.76,0,47.72,76.77,3.23,76.77c-19.19,0-41.92,0.13-64.42,0.32c-7.28,0.06-13.22-5.82-13.22-13.11v-17.73
	c0-24.52-19.88-44.4-44.4-44.4h0c-24.52,0-44.4,19.88-44.4,44.4v119.73v234.44v80.42c0,22.88,17.04,42.61,39.81,44.89
	c26.58,2.67,48.99-18.13,48.99-44.17v-81.15V452.43c0-13.04,10.57-23.61,23.61-23.61h65.35c0,0,100.29-4.6,100.29-121.29
	S860.34,186.24,860.34,186.24z"/>
</svg>
